<svg xmlns="http://www.w3.org/2000/svg" viewBox="0 0 469.04279 109.825"><defs><style>.cls-1{stroke:#000;stroke-miterlimit:10;stroke-width:2px;}</style></defs><g id="Ebene_2" data-name="Ebene 2"><g id="Ebene_1-2" data-name="Ebene 1"><path class="cls-1" d="M468.02365,3.24138a1.96536,1.96536,0,0,0-.00267-.566c-.004-.028-.00133-.0546-.00666-.08256a2.00761,2.00761,0,0,0-.2437-.61527c-.012-.02131-.01332-.04395-.0253-.06526-.02-.032-.05194-.04794-.07325-.07857a1.7434,1.7434,0,0,0-.1345-.19444,2.05591,2.05591,0,0,0-.2264-.19177c-.04128-.03329-.07724-.07191-.11985-.10121a1.97909,1.97909,0,0,0-.58064-.27834c-.03729-.01065-.07458-.012-.11186-.02a1.96634,1.96634,0,0,0-.538-.04528c-.06126.00266-.11852.008-.17979.016-.05194.008-.10521.00266-.15714.01332l-115.862,25.91048a1.99694,1.99694,0,0,0-.51139,3.70759l31.3267,16.86125L390.33484,78.621c.01065.0333.03329.05726.04528.08923a2.82678,2.82678,0,0,0,.38754.62858c.02929.0333.04.07591.07191.10655.0293.028.06659.03728.09722.06392a1.98962,1.98962,0,0,0,.43282.28366,1.79469,1.79469,0,0,0,.18112.09323,1.966,1.966,0,0,0,.68851.13317h.04395a1.96335,1.96335,0,0,0,.67786-.1425c.0546-.0213.09988-.05859.15182-.0839a1.99143,1.99143,0,0,0,.46478-.313c.02663-.024.06126-.032.08656-.05859L409.65716,63.162l30.86991,16.61622a1.99675,1.99675,0,0,0,2.846-1.136L467.95573,3.60494c.01864-.05859.02-.11985.0333-.17978A1.71791,1.71791,0,0,0,468.02365,3.24138ZM451.31554,8.326,382.25777,43.88232l-26.3979-14.20975Zm-4.14839,6.63077L397.21729,53.27247l-.00932.01066a1.95374,1.95374,0,0,0-.39154.41817c-.024.03329-.04661.06658-.06791.10121-.02264.03729-.05194.06925-.07325.10787a1.959,1.959,0,0,0-.16248.41151c-.00133.00666-.00666.012-.008.01864l-4.41874,16.523-7.43914-23.7171Zm-51.04323,56.269,3.5864-13.41336,6.28185,3.38131ZM440.318,75.13444l-38.21849-20.5715L462.148,8.50045Z"/><path class="cls-1" d="M365.37121,108.825a1.99831,1.99831,0,0,1-1.425-3.39863l19.03333-19.34763a1.9974,1.9974,0,0,1,2.84861,2.80068l-19.032,19.349A1.99124,1.99124,0,0,1,365.37121,108.825Z"/><path class="cls-1" d="M396.70856,100.98234a1.99831,1.99831,0,0,1-1.425-3.39863l19.032-19.3463a1.99739,1.99739,0,0,1,2.84861,2.80066L398.13353,100.3857A1.99664,1.99664,0,0,1,396.70856,100.98234Z"/><path class="cls-1" d="M359.425,84.5166A1.9983,1.9983,0,0,1,358,81.118l13.91011-14.1405a1.99739,1.99739,0,0,1,2.84861,2.80066L360.84992,83.91865A1.99257,1.99257,0,0,1,359.425,84.5166Z"/><path d="M0,84.41871V32.80738H41.60156q5.81031,0,8.374,2.36817,2.56347,2.36865,2.56347,7.6416V54.34059q0,5.2251-2.56347,7.59277-2.56348,2.36865-8.374,2.36817H8.64258V84.41871ZM38.23242,39.49684H8.64258V57.51442H38.23242q3.17358,0,4.37012-1.22071,1.196-1.2202,1.19629-4.19922V44.91676q0-2.978-1.19629-4.19922Q41.40577,39.49732,38.23242,39.49684Z"/><path d="M73.584,84.41871V32.80738h41.60157q5.81029,0,8.374,2.36817,2.56347,2.36865,2.56348,7.6416V54.34059q0,5.2251-2.56348,7.59277-2.56347,2.36865-8.374,2.36817h-32.959V84.41871Zm38.23243-44.92187H82.22656V57.51442h29.58985q3.17358,0,4.37011-1.22071,1.19606-1.2202,1.19629-4.19922V44.91676q0-2.978-1.19629-4.19922Q114.98975,39.49732,111.81641,39.49684Z"/><path d="M147.168,84.41871V32.80738h41.60156q5.81031,0,8.374,2.36817,2.56349,2.36865,2.56348,7.6416V54.34059q0,5.2251-2.56348,7.59277-2.56347,2.36865-8.374,2.36817h-32.959V84.41871Zm38.23242-44.92187H155.81055V57.51442h29.58984q3.17358,0,4.37012-1.22071,1.196-1.2202,1.19629-4.19922V44.91676q0-2.978-1.19629-4.19922Q188.57374,39.49732,185.40039,39.49684Z"/><path d="M240.77148,39.83863V84.41871h-8.59375V39.83863h-23.584V32.80738h55.85937v7.03125Z"/><path d="M278.95508,84.41871V32.80738h49.12109v7.03125H287.59766V56.73317h23.0957v6.88476h-23.0957V84.41871Z"/></g></g></svg>